<svg width="800" height="800" viewBox="0 0 800 800" fill="none" xmlns="http://www.w3.org/2000/svg">
<path d="M150 80.0002C143.096 80.0002 137.5 85.5962 137.5 92.5002V570.015C137.5 574.48 139.884 578.61 143.754 580.84L386.69 720.97C390.471 723.15 395.115 723.2 398.943 721.105L656.005 580.24C660.01 578.045 662.5 573.845 662.5 569.28V92.5002C662.5 85.5962 656.905 80.0002 650 80.0002H150ZM62.5 92.5002C62.5 44.1751 101.675 5 150 5H650C698.325 5 737.5 44.1752 737.5 92.5002V569.28C737.5 601.24 720.075 630.655 692.05 646.015L434.984 786.875C408.192 801.555 375.682 801.2 349.217 785.935L106.281 645.81C79.191 630.185 62.5 601.29 62.5 570.015V92.5002ZM250 217.5C250 196.789 266.79 180 287.5 180H518.27C538.98 180 555.77 196.789 555.77 217.5V522.31C555.77 536.51 547.745 549.495 535.04 555.85L419.655 613.54C409.098 618.82 396.672 618.82 386.114 613.54L270.729 555.85C258.025 549.495 250 536.51 250 522.31V493.462C250 472.751 266.79 455.962 287.5 455.962C308.21 455.962 325 472.751 325 493.462V499.131L402.884 538.075L480.769 499.131V415.577H350C329.29 415.577 312.5 398.788 312.5 378.077C312.5 357.366 329.29 340.577 350 340.577H480.769V255H287.5C266.79 255 250 238.211 250 217.5Z" fill="white"/>
</svg>
