<svg width="534" height="635" viewBox="0 0 534 635" fill="none" xmlns="http://www.w3.org/2000/svg">
<path fill-rule="evenodd" clip-rule="evenodd" d="M118.999 446.997C100.139 435.496 77.8706 430.901 55.9987 433.997H0.332031V633.997H44.6654V557.664H63.6654C83.3484 559.686 103.127 554.859 119.665 543.997C133.703 531.957 141.443 514.142 140.665 495.664C141.705 476.899 133.639 458.782 118.999 446.997ZM83.332 519.997C74.9584 523.683 65.7519 525.064 56.6654 523.997H43.6654V467.331H56.6654C66.1052 466.327 75.6285 468.186 83.9987 472.664C91.7939 478.093 96.2112 487.18 95.6654 496.664C96.6752 506.225 91.8009 515.447 83.332 519.997ZM235.999 433.997H180.665V633.997H233.665C260.676 636.64 287.875 631.432 311.999 618.997C338.543 599.215 352.723 566.928 349.332 533.997C351.319 505.785 341.267 478.051 321.665 457.664C297.453 438.58 266.575 430.049 235.999 433.997ZM279.999 588.664C266.112 596.47 250.21 599.952 234.332 598.664H225.665V469.331H233.665C261.665 469.331 272.665 471.997 283.665 481.997C297.015 495.897 303.91 514.766 302.665 533.997C304.38 554.811 295.938 575.171 279.999 588.664ZM397.999 633.997H442.999V550.331H533.665V514.997H442.999V469.331H533.665V433.997H397.999V633.997ZM366.999 0.664062H0.332031V367.331H66.9987V300.664V265.664V67.3307H339.332L466.999 194.997V265.664V300.664V367.331H533.665V167.331L366.999 0.664062Z" fill="#E2E1D6"/>
</svg>
