<svg width="800" height="800" viewBox="0 0 800 800" fill="none" xmlns="http://www.w3.org/2000/svg">
<path d="M135.813 99.7931C137.754 65.4568 145.956 50.5255 169.477 38.5352C194.785 25.6298 234.702 31.6356 281.671 55.4202C301.902 65.6695 303.962 65.8782 339.416 61.3325C386.543 55.2882 447.213 55.3095 490.71 61.3878C523.603 65.9845 525.763 65.7548 546.043 55.4842C612.713 21.7225 665.35 23.9315 684.41 61.2898C693.923 79.9372 695.69 128.323 688.313 168.231C684.223 190.356 684.656 193.118 694.51 207.637C763.833 309.795 713.883 475.386 595.093 537.183C586.003 541.913 578.343 544.84 572.1 547.223C552.93 554.543 547.11 556.766 554.156 590.46C557.55 606.666 561.636 646.96 563.243 680.006C566.146 739.74 566.103 740.156 555.626 752.343C541.366 768.92 520.813 769.2 506.886 753.006C497.803 742.446 496.916 737.46 496.916 696.717C496.916 636.507 490.316 596.487 474.723 562.193C456.18 521.383 469.926 506.166 512.333 497.046C571.276 484.366 617.313 447.99 642.973 393.82C667.37 342.326 671.046 271.167 626.94 227.889C614.396 212.983 613.523 199.482 622.48 158.769C625.826 143.553 628.633 123.922 628.716 115.141C628.843 101.274 627.58 99.1802 619.063 99.1802C613.673 99.1802 593.08 107.02 573.306 116.601L541.746 131.898C538.876 133.288 535.666 133.823 532.5 133.46C452.25 124.248 375.996 124.106 295.354 133.496C292.175 133.866 288.951 133.331 286.071 131.934L254.528 116.627C234.753 107.029 214.16 99.1802 208.772 99.1802C196.313 99.1802 196.126 108.378 207.482 163.026C214.419 196.401 219.087 203.837 199.033 230.524C168.975 270.525 161.466 320.197 177.585 372.387C197.901 438.153 247.65 482.583 317.591 497.406C359.753 506.343 370.773 518.003 354.673 566.35C342 604.396 333.986 614.203 315.569 614.203C290.788 614.203 275.265 592.736 283.808 570.273C287.57 560.373 286.451 559.316 263.237 550.85C192.372 525.013 138.171 467.103 113.39 390.743C94.2368 331.728 102.664 254.913 133.391 208.484C143.853 192.676 144.015 191.335 139.133 161.072C136.371 143.94 134.877 116.367 135.813 99.7931Z" fill="white"/>
<path d="M111.068 531.513C100.856 516.196 80.1605 512.056 64.8428 522.27C49.5255 532.48 45.3862 553.176 55.5978 568.493C63.1368 579.803 72.1558 589.093 79.8148 596.75C81.2268 598.163 82.5989 599.526 83.9385 600.856C90.3542 607.23 96.0188 612.856 101.708 619.536C114.292 634.306 126.846 654.2 133.98 689.873C137.158 705.763 148.58 714.323 154.909 718.063C161.772 722.116 169.271 724.506 175.442 726.063C188.066 729.246 203.39 730.9 217.933 731.863C233.899 732.923 251.198 733.266 266.667 733.36C266.678 751.756 281.597 766.67 300 766.67C318.409 766.67 333.333 751.746 333.333 733.336V700.003C333.333 681.593 318.409 666.67 300 666.67C296.857 666.67 293.458 666.68 289.857 666.693C270.295 666.753 244.796 666.83 222.34 665.343C211.511 664.626 202.609 663.61 196.081 662.366C186.028 622.903 169.788 596.647 152.458 576.303C144.797 567.313 136.865 559.446 130.412 553.046C129.204 551.85 128.048 550.703 126.955 549.61C119.51 542.166 114.64 536.873 111.068 531.513Z" fill="white"/>
</svg>
