<svg width="800" height="800" viewBox="0 0 800 800" fill="none" xmlns="http://www.w3.org/2000/svg">
<path d="M150 75C143.096 75 137.5 80.5965 137.5 87.5V565.015C137.5 569.48 139.884 573.61 143.754 575.84L386.69 715.97C390.471 718.15 395.115 718.2 398.943 716.105L656.005 575.24C660.01 573.045 662.5 568.845 662.5 564.28V87.5C662.5 80.5965 656.905 75 650 75H150ZM62.5 87.5C62.5 39.1751 101.675 0 150 0H650C698.325 0 737.5 39.1751 737.5 87.5V564.28C737.5 596.24 720.075 625.655 692.05 641.015L434.984 781.875C408.192 796.555 375.682 796.2 349.217 780.935L106.281 640.81C79.191 625.185 62.5 596.29 62.5 565.015V87.5ZM250 212.5C250 191.79 266.79 175 287.5 175H518.27C538.98 175 555.77 191.79 555.77 212.5C555.77 233.21 538.98 250 518.27 250H325V335.577H518.27C538.98 335.577 555.77 352.366 555.77 373.077V517.31C555.77 531.51 547.745 544.495 535.04 550.85L419.655 608.54C409.098 613.82 396.672 613.82 386.114 608.54L270.729 550.85C258.025 544.495 250 531.51 250 517.31V488.461C250 467.751 266.79 450.961 287.5 450.961C308.21 450.961 325 467.751 325 488.461V494.132L402.884 533.075L480.769 494.132V410.577H287.5C266.79 410.577 250 393.788 250 373.077V212.5Z" fill="white"/>
</svg>
