<svg width="800" height="800" viewBox="0 0 800 800" fill="none" xmlns="http://www.w3.org/2000/svg">
<path d="M222.631 38.5431C235.94 22.5731 259.674 20.4154 275.644 33.7237C313.684 65.4231 328.457 102.847 320.295 139.772C313.346 171.21 291.446 193.627 274.375 205.55C263.708 214.694 259.261 221.872 257.424 226.341C255.67 230.606 255.708 233.734 256.307 236.444C257.873 243.527 264.646 251.975 272.428 257.164C289.725 268.695 294.399 292.065 282.868 309.361C271.337 326.658 247.967 331.332 230.67 319.801C213.359 308.26 190.018 285.341 182.801 252.694C174.638 215.769 189.411 178.345 227.451 146.645L228.995 145.358L230.668 144.243C238.451 139.054 245.223 130.607 246.789 123.523C247.388 120.814 247.426 117.685 245.672 113.42C243.763 108.778 239.038 101.212 227.451 91.5561C211.481 78.2476 209.323 54.5131 222.631 38.5431ZM456.12 138.918C469.429 154.888 467.271 178.622 451.301 191.931C439.714 201.587 434.989 209.152 433.08 213.794C431.326 218.06 431.364 221.188 431.963 223.897C433.529 230.981 440.301 239.429 448.083 244.617C465.38 256.148 470.054 279.518 458.523 296.815C446.992 314.112 423.622 318.785 406.325 307.254C389.014 295.713 365.674 272.794 358.457 240.146C350.294 203.221 365.068 165.798 403.107 134.098C419.077 120.79 442.812 122.948 456.12 138.918ZM10.3925 379.728C14.5816 362.971 29.6371 351.216 46.909 351.216H624.81C642.085 351.216 657.14 362.971 661.33 379.728C666.77 401.502 668.155 429.282 665.205 460.374H757.36C778.15 460.374 795 477.226 795 498.014C795 534.955 792.755 594.79 755.15 644.92C718.12 694.28 653.655 726.015 550.515 729.41C537.04 746.31 522.2 763.015 505.885 779.33C498.826 786.39 489.252 790.355 479.269 790.355H192.452C182.469 790.355 172.895 786.39 165.836 779.33C93.3941 706.885 49.9965 626.835 26.8805 555.74C4.16157 485.87 0.00719681 421.269 10.3925 379.728ZM463.363 715.075C477.467 700.125 490.18 684.895 501.61 669.57C548.25 607.03 573.515 542.92 584.55 490.289C589.825 465.134 591.67 443.513 591.42 426.497H80.3021C79.9191 452.802 84.5476 489.64 98.4721 532.465C117.072 589.665 151.409 654.71 208.359 715.075H463.363ZM604.675 648.215C654.845 638.455 680.71 618.695 694.93 599.745C708.94 581.07 715.215 558.8 717.885 535.655H650.91C640.985 571.195 625.965 609.45 604.675 648.215Z" fill="white"/>
</svg>
