<svg width="800" height="800" viewBox="0 0 800 800" fill="none" xmlns="http://www.w3.org/2000/svg">
<path fill-rule="evenodd" clip-rule="evenodd" d="M369.084 24.131C394.5 11.0745 426.5 15.1337 447.854 36.4868L763.514 352.147C789.94 378.577 789.94 421.423 763.514 447.85L447.854 763.51C442.784 768.58 437.057 772.713 430.917 775.867C405.5 788.923 373.5 784.863 352.147 763.51L36.488 447.85C10.06 421.423 10.06 378.577 36.488 352.147L352.147 36.4868C357.217 31.4167 362.944 27.2838 369.084 24.131ZM402.854 85.7685C370.75 138.95 377.67 209.122 423.57 255.021L544.977 376.43C551.23 382.68 554.74 391.16 554.74 400C554.74 408.84 551.23 417.317 544.977 423.57L445.234 523.313C468.97 556.323 481.697 594.793 483.417 633.663L716.374 400.71C716.514 400.57 716.567 400.47 716.597 400.393C716.634 400.297 716.667 400.163 716.667 400C716.667 399.837 716.634 399.7 716.597 399.603C716.567 399.53 716.514 399.43 716.374 399.287L402.854 85.7685ZM397.147 714.23C429.25 661.047 422.33 590.877 376.43 544.977L255.022 423.57C242.005 410.553 242.005 389.447 255.022 376.43L354.767 276.685C331.031 243.675 318.304 205.204 316.582 166.334L83.6283 399.287C83.4866 399.43 83.435 399.53 83.405 399.603C83.3656 399.7 83.3336 399.837 83.3336 400C83.3336 400.163 83.3656 400.297 83.405 400.393C83.435 400.47 83.4866 400.57 83.6283 400.71L397.147 714.23ZM400 325.732L325.733 400L400 474.267L474.267 400L400 325.732Z" fill="white"/>
</svg>
