<svg width="800" height="800" viewBox="0 0 800 800" fill="none" xmlns="http://www.w3.org/2000/svg">
<path d="M216.667 266.667C244.281 266.667 266.667 244.281 266.667 216.667C266.667 189.052 244.281 166.667 216.667 166.667C189.053 166.667 166.667 189.052 166.667 216.667C166.667 244.281 189.053 266.667 216.667 266.667Z" fill="white"/>
<path d="M166.667 333.333C166.667 314.924 181.591 300 200 300H233.334C251.743 300 266.667 314.924 266.667 333.333V600C266.667 618.41 251.743 633.333 233.334 633.333H200C181.591 633.333 166.667 618.41 166.667 600V333.333Z" fill="white"/>
<path d="M366.666 633.333H400C418.41 633.333 433.333 618.41 433.333 600V450C433.333 400 533.333 366.667 533.333 433.333V600.013C533.333 618.423 548.256 633.333 566.666 633.333H600C618.41 633.333 633.333 618.41 633.333 600V400C633.333 333.333 583.333 300 516.666 300C450 300 433.333 350 433.333 350V333.333C433.333 314.924 418.41 300 400 300H366.666C348.256 300 333.333 314.924 333.333 333.333V600C333.333 618.41 348.256 633.333 366.666 633.333Z" fill="white"/>
<path fill-rule="evenodd" clip-rule="evenodd" d="M666.666 33.3335C721.896 33.3335 766.666 78.1052 766.666 133.333V666.667C766.666 721.897 721.896 766.667 666.666 766.667H133.333C78.1047 766.667 33.333 721.897 33.333 666.667V133.333C33.333 78.1052 78.1047 33.3335 133.333 33.3335H666.666ZM666.666 100C685.076 100 700 114.924 700 133.333V666.667C700 685.077 685.076 700 666.666 700H133.333C114.924 700 99.9997 685.077 99.9997 666.667V133.333C99.9997 114.924 114.924 100 133.333 100H666.666Z" fill="white"/>
</svg>
