<svg width="800" height="800" viewBox="0 0 800 800" fill="none" xmlns="http://www.w3.org/2000/svg">
<path d="M242.494 118.598C229.947 125.842 216.744 145.818 215.212 189.393C214.484 210.091 197.115 226.28 176.417 225.552C155.719 224.824 139.53 207.455 140.258 186.757C142.136 133.337 159.03 80.1835 204.994 53.646C251.089 27.0331 305.742 39.1183 353.064 64.364C371.337 74.1125 378.247 96.8285 368.499 115.101C358.75 133.374 336.034 140.284 317.762 130.536C279.09 109.905 255.079 111.332 242.494 118.598ZM443.569 183.642C459.518 170.429 483.157 172.647 496.37 188.595C524.09 222.052 550.68 260.203 574.815 302.009C626.83 392.096 658.9 484.393 667.545 561.81C671.86 600.455 670.54 637.23 661.515 668.77C652.42 700.55 634.705 729.315 604.995 746.465C569.05 767.22 527.545 764.275 489.557 750.445C451.434 736.565 412.197 710.28 374.793 676.14C359.496 662.175 358.415 638.455 372.378 623.16C386.34 607.865 410.059 606.78 425.356 620.745C458.312 650.825 489.283 670.525 515.215 679.97C541.285 689.46 557.685 687.18 567.495 681.515C575.715 676.77 583.985 667.1 589.41 648.135C594.905 628.935 596.64 602.645 593.01 570.13C585.76 505.225 557.955 422.804 509.865 339.509C487.746 301.198 463.54 266.528 438.616 236.443C425.403 220.495 427.621 196.855 443.569 183.642Z" fill="white"/>
<path d="M725 410.278C725 395.79 714.3 374.367 677.33 351.253C659.77 340.274 654.435 317.138 665.415 299.577C676.395 282.016 699.53 276.68 717.09 287.659C762.415 315.996 800 357.203 800 410.278C800 463.504 762.21 504.79 716.685 533.15C699.105 544.1 675.975 538.73 665.025 521.15C654.075 503.57 659.45 480.443 677.025 469.492C714.23 446.317 725 424.81 725 410.278ZM568.13 551.89C571.6 572.31 557.86 591.675 537.44 595.145C494.61 602.42 448.274 606.37 400 606.37C295.977 606.37 200.009 588 128.643 556.775C93.016 541.19 61.8295 521.66 39.0265 498.075C16.0489 474.308 0 444.583 0 410.278C0 368.774 23.3041 334.299 54.274 308.318C85.356 282.242 127.735 261.404 176.006 246.082C195.747 239.816 216.829 250.739 223.095 270.479C229.36 290.219 218.437 311.301 198.697 317.567C156.167 331.067 123.62 348.039 102.477 365.776C81.221 383.608 75 398.949 75 410.278C75 419.768 79.238 431.765 92.9475 445.945C106.832 460.306 128.732 474.952 158.704 488.065C218.538 514.24 303.82 531.37 400 531.37C444.238 531.37 486.366 527.745 524.88 521.2C545.3 517.735 564.665 531.475 568.13 551.89Z" fill="white"/>
<path d="M243.596 681.515C256.143 688.76 280.045 690.205 318.548 669.745C336.837 660.025 359.541 666.975 369.26 685.26C378.979 703.55 372.031 726.255 353.742 735.975C306.54 761.055 252.061 773.005 206.096 746.465C160.002 719.855 143.141 666.48 141.344 612.875C140.65 592.175 156.867 574.835 177.566 574.14C198.265 573.445 215.608 589.66 216.302 610.36C217.771 654.17 231.012 674.25 243.596 681.515ZM199.389 474.856C179.972 467.651 170.073 446.069 177.278 426.652C192.393 385.92 212.137 343.815 236.274 302.009C288.286 211.923 352.181 137.998 414.903 91.8046C446.216 68.7436 478.721 51.4996 510.55 43.5452C542.62 35.5296 576.39 36.4933 606.095 53.6456C642.04 74.3976 660.245 111.817 667.26 151.629C674.3 191.584 671.16 238.705 660.29 288.17C655.845 308.398 635.845 321.194 615.62 316.751C595.39 312.307 582.595 292.306 587.04 272.078C596.61 228.496 598.185 191.824 593.4 164.644C588.585 137.32 578.405 124.262 568.595 118.598C560.38 113.853 547.87 111.525 528.735 116.307C509.355 121.151 485.721 132.794 459.379 152.194C406.792 190.923 349.316 256.214 301.226 339.509C279.107 377.82 261.185 416.118 247.593 452.745C240.387 472.162 218.806 482.061 199.389 474.856Z" fill="white"/>
<path d="M472.963 403.309C472.963 440.847 442.532 471.278 404.994 471.278C367.456 471.278 337.025 440.847 337.025 403.309C337.025 365.771 367.456 335.34 404.994 335.34C442.532 335.34 472.963 365.771 472.963 403.309Z" fill="white"/>
</svg>
