<svg width="800" height="800" viewBox="0 0 800 800" fill="none" xmlns="http://www.w3.org/2000/svg">
<g clip-path="url(#clip0_2317_13)">
<path fill-rule="evenodd" clip-rule="evenodd" d="M400 160C300.445 160 238.223 213.333 213.334 319.999C250.667 266.666 294.223 246.667 344 259.999C372.401 267.607 392.701 289.683 415.17 314.119C451.773 353.927 494.137 399.999 586.667 399.999C686.224 399.999 748.443 346.666 773.334 240C736 293.333 692.443 313.333 642.667 299.999C614.267 292.392 593.968 270.317 571.499 245.88C534.896 206.073 492.53 160 400 160ZM213.334 399.999C113.778 399.999 51.5559 453.332 26.667 560C64.0003 506.666 107.556 486.666 157.334 499.999C185.735 507.606 206.034 529.682 228.503 554.117C265.106 593.925 307.47 640 400 640C499.556 640 561.776 586.667 586.667 479.999C549.334 533.332 505.778 553.333 456 540C427.599 532.391 407.3 510.316 384.831 485.879C348.228 446.072 305.864 399.999 213.334 399.999Z" stroke="white" stroke-width="53.3333" stroke-linejoin="round"/>
</g>
<defs>
<clipPath id="clip0_2317_13">
<rect width="800" height="800" fill="white"/>
</clipPath>
</defs>
</svg>
