<svg width="800" height="800" viewBox="0 0 800 800" fill="none" xmlns="http://www.w3.org/2000/svg">
<path d="M536.725 234.375C510.15 219.525 501.575 185.925 516.4 159.375C526.55 141.4 545.3 132.025 564.05 132.025C573.425 132.025 582.8 134.375 591.4 139.05C617.975 154.675 626.55 188.275 611.725 214.05C601.575 232.025 582.825 241.4 564.075 241.4C554.7 241.4 545.325 239.05 536.725 234.375ZM673.45 389.85H582.825C579.7 347.65 558.6 310.15 526.575 285.95C521.1 282.05 515.625 278.125 509.375 274.225C489.05 263.275 465.625 257.025 440.625 257.025C414.85 257.025 391.4 263.275 370.3 275L320.3 199.225C355.45 178.125 396.075 166.4 440.625 166.4C457.825 166.4 475 167.975 492.2 171.875C485.95 202.35 499.225 234.375 527.35 250.775C538.3 257.025 550.8 260.15 564.075 260.15C582.05 260.15 599.225 253.9 612.525 242.175C648.475 281.25 671.125 332.8 673.475 389.825L673.45 389.85ZM303.125 210.95L353.125 286.725C321.875 310.95 300.775 347.675 298.425 389.85C297.65 392.975 297.65 396.1 297.65 400C297.65 403.125 297.65 407.025 298.425 410.15C301.55 454.675 325 492.975 359.375 517.175L311.725 594.525C266.4 564.825 232.025 519.525 216.4 466.4C238.275 453.9 253.9 429.675 253.9 402.325C253.9 374.975 238.275 349.975 214.825 337.475C229.675 285.9 260.925 241.375 303.1 210.9L303.125 210.95ZM179.7 347.65C210.175 347.65 235.175 371.875 235.175 402.35C235.175 432.825 210.175 457.825 179.7 457.825C149.225 457.825 125 432.825 125 402.35C125 371.875 149.225 347.65 179.7 347.65ZM329.7 605.475L377.35 527.35C396.1 536.725 417.975 542.2 440.625 542.2C465.625 542.2 489.075 535.95 510.15 524.225C516.4 521.1 521.875 517.2 527.35 512.5C558.6 489.05 579.7 452.35 582.825 410.15H673.45C671.1 469.525 646.1 523.425 607.05 563.275C595.325 554.675 580.475 550 565.65 550C552.375 550 539.875 553.125 528.925 559.375C503.925 574.225 490.65 600.775 492.2 627.35C475 631.25 457.825 633.6 440.625 633.6C400 633.6 362.525 623.45 329.7 605.475ZM565.625 568.75C584.375 568.75 603.125 578.125 613.275 596.1C628.125 622.675 618.75 657.05 592.95 671.875C584.35 676.575 574.975 678.9 565.6 678.9C546.075 678.9 528.1 669.525 517.95 651.55C502.325 624.975 511.7 591.4 538.275 575.775C546.875 571.075 556.25 568.75 565.625 568.75Z" fill="white"/>
</svg>
