<svg width="800" height="800" viewBox="0 0 800 800" fill="none" xmlns="http://www.w3.org/2000/svg">
<g clip-path="url(#clip0_2317_17)">
<path fill-rule="evenodd" clip-rule="evenodd" d="M578.65 13.75C575.35 14.7 571.05 16.35 569.1 17.4C567.15 18.45 499.95 76 419.8 145.3C339.6 214.55 273.1 271.2 272 271.2C270.9 271.2 238.8 247.8 200.65 219.2C162.55 190.65 129.25 166.35 126.65 165.3C119.15 162.15 103.25 162.8 96 166.5C87.7 170.8 9.44995 248.75 4.69995 257.5C-1.80005 269.5 -1.00005 285.2 6.69995 295.8C8.74996 298.65 35.45 323.65 65.95 351.3C96.5 378.95 121.3 402.05 121.05 402.6C120.85 403.2 96.3 424.7 66.5 450.45C36.7 476.15 10.4 499.5 8.09995 502.25C-0.750045 512.95 -2.20004 529.85 4.64995 542.45C9.44995 551.2 87.6 629.15 96 633.5C104.3 637.85 120.85 637.95 128.65 633.75C131.6 632.2 163.65 608.65 199.85 581.45L265.75 532.05L271.2 537.05C274.2 539.8 335.65 595.45 407.7 660.7C500 744.25 541 780.5 546.3 783.35L553.8 787.35H587.5H621.2L702.75 746.65C777.75 709.25 784.75 705.5 790.15 699.55C800.8 687.7 800 711.6 800 412.65C800 121.6 800.45 139.25 792.45 127.7C789.55 123.5 771.95 111.15 710.75 70.3C667.9 41.7 630.1 17.05 626.75 15.55C621.75 13.3 617.4 12.75 602.65 12.4C590.8 12.15 582.6 12.6 578.65 13.75ZM663.6 129L725.25 170L725.3 411L725.35 652L665.1 682L604.9 712H590.65H576.45L433 582.2C354.1 510.8 287.4 451.4 284.85 450.15C274.9 445.45 259.85 445.1 251.8 449.45C250.1 450.35 219.25 473.2 183.2 500.2C147.15 527.25 117.1 549.35 116.45 549.35C114.95 549.35 92.6 526.95 93.4 526.25C127.05 497.4 197.3 436.55 202.5 431.7C206.8 427.65 210.95 422.1 213 417.7C215.85 411.35 216.25 409 215.7 400.55C215.2 392.65 214.3 389.4 211.15 384.35C208.5 380.05 188.45 361.05 149.7 326L92.2 274L103.75 262.35C110.1 255.9 115.85 250.65 116.55 250.65C117.2 250.65 148.75 273.9 186.55 302.3C261.35 358.45 263.4 359.7 277.05 358.1C280.95 357.65 286.65 356.1 289.7 354.65C292.8 353.2 314.85 335.15 338.65 314.55C362.5 293.95 389.2 270.85 398 263.25C406.8 255.65 456 213.15 507.35 168.75C558.65 124.4 600.95 88.05 601.3 88.05C601.7 88 629.7 106.45 663.6 129ZM582 212.85C580.55 213.15 576.95 214.3 574 215.4C571.05 216.45 520.05 252.3 460.65 295.05C343.35 379.5 346 377.35 342.55 392.7C341.25 398.45 341.25 401.55 342.55 407.3C345.95 422.65 343.4 420.5 460.65 504.95C520.05 547.7 571.35 583.75 574.65 585C592 591.65 611.8 583.55 621.1 566L624.65 559.35V400V240.65L621.1 234C616.65 225.6 610.4 219.55 602.65 216.2C596.3 213.4 586.45 211.8 582 212.85ZM549 437.85L548.65 475.7L496.35 438.2C467.6 417.55 444.05 400.35 444.05 400C444.05 399.65 467.6 382.45 496.35 361.8L548.65 324.3L549 362.15C549.2 382.95 549.2 417.05 549 437.85Z" fill="white"/>
</g>
<defs>
<clipPath id="clip0_2317_17">
<rect width="800" height="800" fill="white"/>
</clipPath>
</defs>
</svg>
