<svg width="6968" height="712" viewBox="0 0 6968 712" fill="none" xmlns="http://www.w3.org/2000/svg">
<path d="M582.926 154.148C528.889 105.971 459.391 81.8828 374.43 81.8828C297.281 81.8828 231.852 107.273 178.141 158.055C123.779 209.161 96.5977 272.801 96.5977 348.973C96.5977 427.749 124.592 494.48 180.582 549.168C236.246 603.53 303.792 630.711 383.219 630.711C440.836 630.711 498.29 616.062 555.582 586.766C572.509 578.302 587.158 569.025 599.527 558.934L634.684 626.316C586.832 667.332 525.146 693.862 449.625 705.906C425.211 709.812 400.146 711.766 374.43 711.766C323.323 711.766 275.146 703.302 229.898 686.375C184.651 669.122 144.938 645.197 110.758 614.598C76.9036 583.673 50.0482 546.889 30.1914 504.246C10.6602 461.603 0.894531 418.634 0.894531 375.34C0.894531 332.046 5.28906 294.611 14.0781 263.035C23.1927 231.134 36.0508 201.837 52.6523 175.145C69.2539 148.126 89.1107 123.875 112.223 102.391C135.335 80.9062 161.051 62.6771 189.371 47.7031C248.616 16.4531 313.232 0.828125 383.219 0.828125C477.945 0.828125 559.651 27.8464 628.336 81.8828L582.926 154.148Z" fill="#E2E1D6"/>
<path d="M839.273 614.598C805.419 583.673 778.564 546.889 758.707 504.246C739.176 461.603 729.41 418.634 729.41 375.34C729.41 332.046 733.805 294.611 742.594 263.035C751.708 231.134 764.566 201.837 781.168 175.145C797.77 148.126 817.626 123.875 840.738 102.391C863.85 80.9062 889.566 62.6771 917.887 47.7031C977.132 16.4531 1041.75 0.828125 1111.73 0.828125C1178.79 0.828125 1241.29 15.8021 1299.23 45.75C1355.55 75.0469 1400.47 115.737 1434 167.82C1468.18 222.182 1485.27 282.566 1485.27 348.973C1485.27 454.116 1448.16 541.193 1373.94 610.203C1327.39 653.497 1271.24 683.283 1205.48 699.559C1172.61 707.697 1134.52 711.766 1091.23 711.766C1047.93 711.766 1003.66 703.302 958.414 686.375C913.167 669.122 873.453 645.197 839.273 614.598ZM906.168 158.055C881.103 181.818 861.246 209.975 846.598 242.527C832.275 275.079 825.113 310.887 825.113 349.949C825.113 389.012 832.6 425.633 847.574 459.812C862.548 493.992 883.056 523.777 909.098 549.168C964.762 603.53 1032.31 630.711 1111.73 630.711C1188.88 630.711 1254.31 605.32 1308.02 554.539C1362.39 503.107 1389.57 439.467 1389.57 363.621C1389.57 312.189 1376.55 264.5 1350.5 220.555C1326.09 178.888 1291.75 145.359 1247.48 119.969C1203.86 94.5781 1159.26 81.8828 1113.69 81.8828C1068.11 81.8828 1028.4 88.7188 994.547 102.391C961.018 115.737 931.559 134.292 906.168 158.055Z" fill="#E2E1D6"/>
<path d="M1642.01 10.5938H1721.11L2166.42 556.492V10.5938H2246.99V702H2171.3L1722.57 152.195V702H1642.01V10.5938Z" fill="#E2E1D6"/>
<path d="M2629.8 92.625H2370.04V10.5938H2979.9V92.625H2720.13V702H2629.8V92.625Z" fill="#E2E1D6"/>
<path d="M3348.55 10.5938H3399.82L3699.14 702H3600.5L3535.07 550.633H3188.88L3118.08 702H3025.31L3348.55 10.5938ZM3499.92 468.602L3437.42 323.582C3429.61 305.353 3421.96 286.473 3414.47 266.941L3394.94 211.766C3382.57 175.958 3375.24 151.544 3372.96 138.523H3367.11C3364.5 151.544 3358.64 170.099 3349.53 194.188C3349.53 194.188 3341.23 215.346 3324.62 257.664C3317.14 275.893 3309 294.448 3300.21 313.328L3227.46 468.602H3499.92Z" fill="#E2E1D6"/>
<path d="M4360.27 154.148C4306.23 105.971 4236.73 81.8828 4151.77 81.8828C4074.62 81.8828 4009.2 107.273 3955.48 158.055C3901.12 209.161 3873.94 272.801 3873.94 348.973C3873.94 427.749 3901.94 494.48 3957.93 549.168C4013.59 603.53 4081.14 630.711 4160.56 630.711C4218.18 630.711 4275.63 616.062 4332.93 586.766C4349.85 578.302 4364.5 569.025 4376.87 558.934L4412.03 626.316C4364.18 667.332 4302.49 693.862 4226.97 705.906C4202.55 709.812 4177.49 711.766 4151.77 711.766C4100.67 711.766 4052.49 703.302 4007.24 686.375C3961.99 669.122 3922.28 645.197 3888.1 614.598C3854.25 583.673 3827.39 546.889 3807.54 504.246C3788 461.603 3778.24 418.634 3778.24 375.34C3778.24 332.046 3782.63 294.611 3791.42 263.035C3800.54 231.134 3813.39 201.837 3830 175.145C3846.6 148.126 3866.45 123.875 3889.57 102.391C3912.68 80.9062 3938.39 62.6771 3966.71 47.7031C4025.96 16.4531 4090.58 0.828125 4160.56 0.828125C4255.29 0.828125 4336.99 27.8464 4405.68 81.8828L4360.27 154.148Z" fill="#E2E1D6"/>
<path d="M4732.34 92.625H4472.57V10.5938H5082.44V92.625H4822.67V702H4732.34V92.625Z" fill="#E2E1D6"/>
<path d="M5540.93 11.082H5567.79L5872.96 345.555L6177.65 11.082H6206.46L6265.05 702H6176.68L6132.24 181.98L5873.94 468.113H5864.18L5613.69 186.375L5574.62 702H5487.22L5540.93 11.082Z" fill="#E2E1D6"/>
<path d="M6441.81 10.5938H6957.93V92.625H6532.14V279.148H6911.54V361.18H6532.14V619.969H6967.69V702H6441.81V10.5938Z" fill="#E2E1D6"/>
</svg>
