<svg xmlns="http://www.w3.org/2000/svg" version="1.1" xmlns:xlink="http://www.w3.org/1999/xlink" xmlns:svgjs="http://svgjs.dev/svgjs" width="1920" height="1080" preserveAspectRatio="none" viewBox="0 0 1920 1080"><g mask="url(&quot;#SvgjsMask1000&quot;)" fill="none"><path d="M2076.04 668.36C1858.24 653.58 1739.5 256.15 1317.2 236.36 894.9 216.57 763.56-71.38 558.36-77.49" stroke="rgba(24, 98, 62, 1)" stroke-width="2"></path><path d="M2057.28 269.4C1875.57 278.18 1753.13 601.12 1405.72 593.4 1058.3 585.68 999.42-129.71 754.15-214.24" stroke="rgba(24, 98, 62, 1)" stroke-width="2"></path><path d="M2021.27 143.78C1844.22 180.88 1766.07 642.47 1495.19 640.58 1224.31 638.69 1179.98-22.77 969.11-115.08" stroke="rgba(24, 98, 62, 1)" stroke-width="2"></path><path d="M2125.94 358.11C1861.06 370.24 1541.85 825.54 1172.39 822.51 802.92 819.48 903.1 108.11 695.61-13.84" stroke="rgba(24, 98, 62, 1)" stroke-width="2"></path><path d="M2197.84 315.93C1956.33 322.99 1660.24 690.48 1303.87 683.13 947.51 675.78 1057.74-36.32 856.89-168.51" stroke="rgba(24, 98, 62, 1)" stroke-width="2"></path></g><defs><mask id="SvgjsMask1000"><rect width="1920" height="1080" fill="#ffffff"></rect></mask></defs></svg>