<svg width="2740" height="1671" viewBox="0 0 2740 1671" fill="none" xmlns="http://www.w3.org/2000/svg">
<path d="M2605.4 153.404C2453.32 -6.9055 2249.3 -0.628791 2217.37 0.877709H1311.02C1380.08 119.723 1449.14 238.571 1518.2 357.419H2242.06C2302.45 365.099 2348.35 416.205 2349.87 476.138C2351.43 538.369 2304.79 593.174 2242.06 601.185H1659.85C1728.98 720.187 1798.15 839.186 1867.29 958.186H2262.61C2394.33 958.186 2513.52 904.479 2599.84 817.677C2624.96 792.393 2741.21 669.819 2739.49 478.461C2737.93 304.271 2639.65 189.455 2605.4 153.379V153.404Z" fill="#727272"/>
<path d="M1518.2 357.444H1458.47C1470.12 398.115 1481.81 438.683 1493.47 479.328C1505.11 519.997 1516.81 560.567 1528.47 601.21H1659.85C1612.62 519.946 1565.42 438.683 1518.2 357.419V357.444Z" fill="#727272"/>
<path d="M2150.96 1446.46C1988.11 1446.82 1825.2 1447.17 1662.36 1447.58C1511.76 1180.83 1361.21 914.047 1210.61 647.316C959.558 913.867 708.5 1180.39 457.445 1446.95C305.097 1447.05 152.749 1447.17 0.400146 1447.28C437.283 965.125 874.163 483.001 1311.05 0.850128C1364.94 90.1016 1407.37 162.283 1436.66 212.597C1459.67 252.093 1489.97 304.22 1558.78 423.475C1569.51 442.1 1580.31 460.65 1591.09 479.275C1601.82 497.901 1612.62 516.45 1623.4 535.076C1799.26 838.853 1975.15 1142.66 2150.98 1446.43L2150.96 1446.46Z" fill="#C5C6C6"/>
<path d="M456.202 1446.95H975.663C1114.54 1287.81 1253.4 1128.68 1392.28 969.541C1331.74 862.124 1271.18 754.707 1210.64 647.316C959.151 913.867 707.689 1180.39 456.202 1446.95Z" fill="#727272"/>
<path d="M9.16455 1629.8C9.16455 1623.78 10.3018 1618.18 12.5762 1613.01C14.8952 1607.84 18.0615 1603.4 22.0752 1599.7C30.5931 1591.85 41.0732 1587.92 53.5156 1587.92C65.5566 1587.92 75.7246 1591.69 84.0195 1599.23C87.944 1602.8 91.0435 1607.06 93.3179 1612.01C95.6369 1616.96 96.7964 1622.44 96.7964 1628.46C96.7964 1634.48 95.6369 1640.08 93.3179 1645.25C91.0435 1650.43 87.8994 1654.86 83.8857 1658.56C75.3678 1666.41 64.8877 1670.34 52.4453 1670.34C40.4043 1670.34 30.2363 1666.57 21.9414 1659.03C13.4235 1651.27 9.16455 1641.53 9.16455 1629.8ZM18.9312 1628.33C18.9312 1633.06 19.8231 1637.49 21.6069 1641.64C23.4354 1645.74 25.9105 1649.33 29.0322 1652.41C35.8109 1658.97 43.972 1662.24 53.5156 1662.24C62.8363 1662.24 70.7298 1659.19 77.1963 1653.08C83.752 1646.84 87.0298 1639.14 87.0298 1630C87.0298 1620.46 83.6628 1612.41 76.9287 1605.85C70.1501 1599.25 61.9889 1595.95 52.4453 1595.95C43.1247 1595.95 35.2311 1599.03 28.7646 1605.18C22.209 1611.38 18.9312 1619.1 18.9312 1628.33ZM54.7197 1642.18C59.1348 1642.18 63.3937 1641.17 67.4966 1639.17L69.3027 1646.12C66.8053 1648 63.1038 1649.33 58.1982 1650.14C56.682 1650.36 54.7197 1650.47 52.3115 1650.47C49.9479 1650.47 47.3613 1650 44.5518 1649.07C41.7868 1648.08 39.4232 1646.7 37.4609 1644.92C33.3135 1641.08 31.2397 1635.84 31.2397 1629.2C31.2397 1622.78 33.4919 1617.56 37.9961 1613.54C42.4557 1609.62 48.0303 1607.66 54.7197 1607.66C59.5807 1607.66 63.9958 1608.86 67.9648 1611.27L64.5532 1618.63C61.1193 1616.71 57.4178 1615.75 53.4487 1615.75C49.5243 1615.75 46.4694 1616.84 44.2842 1619.03C42.099 1621.22 41.0063 1624.4 41.0063 1628.6C41.0063 1637.65 45.5775 1642.18 54.7197 1642.18Z" fill="#727272"/>
<path d="M115.861 1657.76L140.947 1636.09C157.269 1621.86 165.43 1610.49 165.43 1601.97C165.43 1595.77 163.758 1591.27 160.413 1588.46C157.113 1585.6 152.007 1584.18 145.094 1584.18C139.475 1584.18 132.719 1585.74 124.825 1588.86C122.863 1589.62 121.324 1590.29 120.209 1590.87L116.798 1580.23C122.818 1577.15 130.311 1574.95 139.274 1573.61C142.129 1573.16 145.317 1572.94 148.84 1572.94C152.363 1572.94 156.043 1573.59 159.878 1574.88C163.758 1576.17 167.08 1578.02 169.845 1580.43C175.643 1585.47 178.542 1592.38 178.542 1601.17C178.542 1613.17 170.09 1626.28 153.188 1640.5L133.254 1657.29L181.017 1657.23V1669H115.861V1657.76Z" fill="#727272"/>
<path d="M198.744 1622.44C198.744 1615.31 199.814 1608.68 201.955 1602.57C204.14 1596.46 207.262 1591.22 211.32 1586.85C219.927 1577.58 231.41 1572.94 245.771 1572.94C259.64 1572.94 270.767 1577.4 279.151 1586.32C287.446 1595.1 291.593 1606.54 291.593 1620.64C291.593 1635.49 287.401 1647.42 279.017 1656.42C270.41 1665.7 258.926 1670.34 244.566 1670.34C230.697 1670.34 219.548 1665.88 211.119 1656.96C202.869 1648.26 198.744 1636.76 198.744 1622.44ZM211.855 1620.77C211.855 1626.12 212.591 1631.14 214.062 1635.82C215.579 1640.5 217.786 1644.58 220.685 1648.06C226.884 1655.51 235.246 1659.23 245.771 1659.23C256.028 1659.23 264.1 1655.75 269.986 1648.8C275.65 1642.11 278.482 1633.39 278.482 1622.64C278.482 1611.4 275.539 1602.26 269.652 1595.22C263.453 1587.77 255.091 1584.04 244.566 1584.04C234.354 1584.04 226.282 1587.52 220.351 1594.48C214.687 1601.08 211.855 1609.84 211.855 1620.77Z" fill="#727272"/>
<path d="M310.658 1657.76L335.744 1636.09C352.066 1621.86 360.227 1610.49 360.227 1601.97C360.227 1595.77 358.555 1591.27 355.21 1588.46C351.91 1585.6 346.804 1584.18 339.891 1584.18C334.272 1584.18 327.516 1585.74 319.622 1588.86C317.66 1589.62 316.121 1590.29 315.006 1590.87L311.595 1580.23C317.615 1577.15 325.107 1574.95 334.071 1573.61C336.925 1573.16 340.114 1572.94 343.637 1572.94C347.16 1572.94 350.84 1573.59 354.675 1574.88C358.555 1576.17 361.877 1578.02 364.642 1580.43C370.44 1585.47 373.338 1592.38 373.338 1601.17C373.338 1613.17 364.887 1626.28 347.985 1640.5L328.051 1657.29L375.813 1657.23V1669H310.658V1657.76Z" fill="#727272"/>
<path d="M389.527 1635.15L440.835 1574.28H453.21V1635.02H471.941V1646.26H453.21V1669H440.835V1646.26H393.139L389.527 1635.15ZM440.835 1635.02V1589.33L403.24 1635.02H440.835Z" fill="#727272"/>
<path d="M529.27 1574.28H566.797C579.463 1574.28 589.586 1577.13 597.167 1582.84C605.373 1588.99 609.476 1597.85 609.476 1609.4C609.476 1621.44 605.15 1631.03 596.499 1638.16C588.293 1644.9 577.768 1648.26 564.924 1648.26H541.645V1669H529.27V1574.28ZM566.597 1637.02C575.694 1637.02 582.874 1634.75 588.137 1630.2C593.622 1625.47 596.365 1618.81 596.365 1610.2C596.365 1601.95 593.288 1595.66 587.133 1591.34C581.603 1587.46 574.178 1585.52 564.857 1585.52H541.645V1637.02H566.597Z" fill="#727272"/>
<path d="M661.252 1574.28H668.276L709.283 1669H695.77L686.806 1648.26H639.378L629.678 1669H616.968L661.252 1574.28ZM681.99 1637.02L673.427 1617.16C672.357 1614.66 671.309 1612.07 670.283 1609.4L667.607 1601.84C665.913 1596.93 664.909 1593.59 664.597 1591.8H663.794C663.438 1593.59 662.635 1596.13 661.386 1599.43C661.386 1599.43 660.249 1602.33 657.975 1608.13C656.949 1610.62 655.834 1613.17 654.63 1615.75L644.663 1637.02H681.99Z" fill="#727272"/>
<path d="M721.19 1574.28H733.565V1623.31C733.565 1640.53 739.296 1651.65 750.757 1656.69C754.682 1658.39 759.32 1659.23 764.671 1659.23C770.023 1659.23 774.572 1658.45 778.318 1656.89C782.109 1655.33 785.23 1653.08 787.683 1650.14C792.455 1644.47 794.841 1636.2 794.841 1625.32V1574.28H807.216V1623.31C807.216 1646.01 799.033 1660.62 782.666 1667.13C777.225 1669.27 770.937 1670.34 763.802 1670.34C756.666 1670.34 750.445 1669.31 745.138 1667.26C739.876 1665.16 735.483 1662.18 731.96 1658.3C724.78 1650.45 721.19 1639.45 721.19 1625.32V1574.28Z" fill="#727272"/>
<path d="M829.76 1574.28H842.135V1657.76H893.778V1669H829.76V1574.28Z" fill="#727272"/>
<path d="M910.568 1574.28H922.944V1669H910.568V1574.28Z" fill="#727272"/>
<path d="M945.554 1574.28H957.93V1623.31C957.93 1640.53 963.66 1651.65 975.122 1656.69C979.046 1658.39 983.684 1659.23 989.036 1659.23C994.387 1659.23 998.936 1658.45 1002.68 1656.89C1006.47 1655.33 1009.59 1653.08 1012.05 1650.14C1016.82 1644.47 1019.21 1636.2 1019.21 1625.32V1574.28H1031.58V1623.31C1031.58 1646.01 1023.4 1660.62 1007.03 1667.13C1001.59 1669.27 995.301 1670.34 988.166 1670.34C981.031 1670.34 974.809 1669.31 969.502 1667.26C964.24 1665.16 959.847 1662.18 956.324 1658.3C949.144 1650.45 945.554 1639.45 945.554 1625.32V1574.28Z" fill="#727272"/>
<path d="M1056.73 1647.66C1065.03 1653.01 1073.46 1656.54 1082.02 1658.23C1084.92 1658.81 1087.86 1659.1 1090.85 1659.1C1093.84 1659.1 1096.91 1658.83 1100.08 1658.3C1103.29 1657.72 1106.12 1656.78 1108.58 1655.49C1114.11 1652.54 1116.87 1648.02 1116.87 1641.91C1116.87 1635.62 1112.23 1631.23 1102.96 1628.73C1100.24 1628.02 1097.34 1627.37 1094.26 1626.79L1084.69 1625.12C1072.52 1623.02 1064.02 1619.94 1059.21 1615.89C1054.75 1612.18 1052.52 1607.19 1052.52 1600.9C1052.52 1592.34 1056.62 1585.4 1064.83 1580.1C1072.14 1575.33 1080.77 1572.94 1090.72 1572.94C1100.26 1572.94 1108.84 1574.5 1116.47 1577.62C1119.19 1578.69 1122.02 1580.03 1124.97 1581.64L1120.42 1592.54C1113.95 1588.66 1106.32 1586.14 1097.54 1584.98C1094.77 1584.58 1092.1 1584.38 1089.51 1584.38C1083.58 1584.38 1078.34 1585.52 1073.79 1587.79C1068.48 1590.47 1065.83 1594.17 1065.83 1598.89C1065.83 1603.89 1069.2 1607.55 1075.93 1609.87C1078.96 1610.94 1082.4 1611.81 1086.23 1612.47L1098.14 1614.55C1108.17 1616.42 1115.13 1618.54 1119.01 1620.9C1122.89 1623.27 1125.75 1625.92 1127.57 1628.86C1129.45 1631.76 1130.38 1635.64 1130.38 1640.5C1130.38 1645.32 1129.25 1649.65 1126.97 1653.48C1124.7 1657.32 1121.67 1660.48 1117.87 1662.98C1110.47 1667.93 1101.04 1670.4 1089.58 1670.4C1078.88 1670.4 1068.82 1668.09 1059.41 1663.45C1056.33 1661.93 1053.48 1660.19 1050.85 1658.23L1056.73 1647.66Z" fill="#727272"/>
<path d="M1224.5 1574.28H1231.53L1272.53 1669H1259.02L1250.06 1648.26H1202.63L1192.93 1669H1180.22L1224.5 1574.28ZM1245.24 1637.02L1236.68 1617.16C1235.61 1614.66 1234.56 1612.07 1233.54 1609.4L1230.86 1601.84C1229.16 1596.93 1228.16 1593.59 1227.85 1591.8H1227.05C1226.69 1593.59 1225.89 1596.13 1224.64 1599.43C1224.64 1599.43 1223.5 1602.33 1221.23 1608.13C1220.2 1610.62 1219.09 1613.17 1217.88 1615.75L1207.91 1637.02H1245.24Z" fill="#727272"/>
<path d="M1289.12 1647.66C1297.42 1653.01 1305.85 1656.54 1314.41 1658.23C1317.31 1658.81 1320.25 1659.1 1323.24 1659.1C1326.23 1659.1 1329.31 1658.83 1332.47 1658.3C1335.68 1657.72 1338.51 1656.78 1340.97 1655.49C1346.5 1652.54 1349.26 1648.02 1349.26 1641.91C1349.26 1635.62 1344.62 1631.23 1335.35 1628.73C1332.63 1628.02 1329.73 1627.37 1326.65 1626.79L1317.09 1625.12C1304.91 1623.02 1296.42 1619.94 1291.6 1615.89C1287.14 1612.18 1284.91 1607.19 1284.91 1600.9C1284.91 1592.34 1289.01 1585.4 1297.22 1580.1C1304.53 1575.33 1313.16 1572.94 1323.11 1572.94C1332.65 1572.94 1341.24 1574.5 1348.86 1577.62C1351.58 1578.69 1354.41 1580.03 1357.36 1581.64L1352.81 1592.54C1346.34 1588.66 1338.72 1586.14 1329.93 1584.98C1327.17 1584.58 1324.49 1584.38 1321.9 1584.38C1315.97 1584.38 1310.73 1585.52 1306.18 1587.79C1300.88 1590.47 1298.22 1594.17 1298.22 1598.89C1298.22 1603.89 1301.59 1607.55 1308.32 1609.87C1311.36 1610.94 1314.79 1611.81 1318.62 1612.47L1330.53 1614.55C1340.57 1616.42 1347.52 1618.54 1351.4 1620.9C1355.28 1623.27 1358.14 1625.92 1359.97 1628.86C1361.84 1631.76 1362.78 1635.64 1362.78 1640.5C1362.78 1645.32 1361.64 1649.65 1359.36 1653.48C1357.09 1657.32 1354.06 1660.48 1350.27 1662.98C1342.86 1667.93 1333.43 1670.4 1321.97 1670.4C1311.27 1670.4 1301.21 1668.09 1291.8 1663.45C1288.72 1661.93 1285.87 1660.19 1283.24 1658.23L1289.12 1647.66Z" fill="#727272"/>
<path d="M1411.94 1585.52H1376.35V1574.28H1459.91V1585.52H1424.32V1669H1411.94V1585.52Z" fill="#727272"/>
<path d="M1559.65 1603.44C1559.65 1617.49 1553.18 1627.19 1540.25 1632.54L1558.24 1669H1543.86L1527.6 1636.02C1523.19 1636.69 1518.57 1637.02 1513.76 1637.02H1489.14V1669H1476.76V1574.28H1515.63C1529.63 1574.28 1540.09 1576.19 1547 1580.03C1555.43 1584.67 1559.65 1592.47 1559.65 1603.44ZM1515.43 1625.79C1525.42 1625.79 1532.82 1624.4 1537.64 1621.64C1543.57 1618.2 1546.53 1612.41 1546.53 1604.25C1546.53 1593.63 1539.67 1587.61 1525.93 1586.18C1521.96 1585.74 1517.88 1585.52 1513.69 1585.52H1489.14V1625.79H1515.43Z" fill="#727272"/>
<path d="M1614.1 1574.28H1621.12L1662.13 1669H1648.62L1639.65 1648.26H1592.22L1582.52 1669H1569.81L1614.1 1574.28ZM1634.84 1637.02L1626.27 1617.16C1625.2 1614.66 1624.15 1612.07 1623.13 1609.4L1620.45 1601.84C1618.76 1596.93 1617.76 1593.59 1617.44 1591.8H1616.64C1616.28 1593.59 1615.48 1596.13 1614.23 1599.43C1614.23 1599.43 1613.09 1602.33 1610.82 1608.13C1609.79 1610.62 1608.68 1613.17 1607.48 1615.75L1597.51 1637.02H1634.84Z" fill="#727272"/>
<path d="M1674.04 1574.28H1686.41V1623.31C1686.41 1640.53 1692.14 1651.65 1703.6 1656.69C1707.53 1658.39 1712.17 1659.23 1717.52 1659.23C1722.87 1659.23 1727.42 1658.45 1731.16 1656.89C1734.95 1655.33 1738.08 1653.08 1740.53 1650.14C1745.3 1644.47 1747.69 1636.2 1747.69 1625.32V1574.28H1760.06V1623.31C1760.06 1646.01 1751.88 1660.62 1735.51 1667.13C1730.07 1669.27 1723.78 1670.34 1716.65 1670.34C1709.51 1670.34 1703.29 1669.31 1697.98 1667.26C1692.72 1665.16 1688.33 1662.18 1684.81 1658.3C1677.63 1650.45 1674.04 1639.45 1674.04 1625.32V1574.28Z" fill="#727272"/>
<path d="M1785.21 1647.66C1793.51 1653.01 1801.94 1656.54 1810.5 1658.23C1813.4 1658.81 1816.34 1659.1 1819.33 1659.1C1822.32 1659.1 1825.4 1658.83 1828.56 1658.3C1831.77 1657.72 1834.6 1656.78 1837.06 1655.49C1842.59 1652.54 1845.35 1648.02 1845.35 1641.91C1845.35 1635.62 1840.71 1631.23 1831.44 1628.73C1828.72 1628.02 1825.82 1627.37 1822.74 1626.79L1813.18 1625.12C1801 1623.02 1792.51 1619.94 1787.69 1615.89C1783.23 1612.18 1781 1607.19 1781 1600.9C1781 1592.34 1785.1 1585.4 1793.31 1580.1C1800.62 1575.33 1809.25 1572.94 1819.2 1572.94C1828.74 1572.94 1837.33 1574.5 1844.95 1577.62C1847.67 1578.69 1850.5 1580.03 1853.45 1581.64L1848.9 1592.54C1842.43 1588.66 1834.81 1586.14 1826.02 1584.98C1823.26 1584.58 1820.58 1584.38 1817.99 1584.38C1812.06 1584.38 1806.82 1585.52 1802.27 1587.79C1796.97 1590.47 1794.31 1594.17 1794.31 1598.89C1794.31 1603.89 1797.68 1607.55 1804.41 1609.87C1807.45 1610.94 1810.88 1611.81 1814.71 1612.47L1826.62 1614.55C1836.66 1616.42 1843.61 1618.54 1847.49 1620.9C1851.37 1623.27 1854.23 1625.92 1856.06 1628.86C1857.93 1631.76 1858.87 1635.64 1858.87 1640.5C1858.87 1645.32 1857.73 1649.65 1855.45 1653.48C1853.18 1657.32 1850.15 1660.48 1846.36 1662.98C1838.95 1667.93 1829.52 1670.4 1818.06 1670.4C1807.36 1670.4 1797.3 1668.09 1787.89 1663.45C1784.81 1661.93 1781.96 1660.19 1779.33 1658.23L1785.21 1647.66Z" fill="#727272"/>
<path d="M1880.27 1574.28H1892.98V1621.44L1942.15 1574.28H1958.14L1906.63 1623.38L1960.34 1669H1940.81L1892.98 1627.19V1669H1880.27V1574.28Z" fill="#727272"/>
<path d="M2007.84 1574.28H2014.86L2055.87 1669H2042.36L2033.39 1648.26H1985.96L1976.27 1669H1963.56L2007.84 1574.28ZM2028.58 1637.02L2020.01 1617.16C2018.94 1614.66 2017.9 1612.07 2016.87 1609.4L2014.19 1601.84C2012.5 1596.93 2011.5 1593.59 2011.18 1591.8H2010.38C2010.02 1593.59 2009.22 1596.13 2007.97 1599.43C2007.97 1599.43 2006.84 1602.33 2004.56 1608.13C2003.54 1610.62 2002.42 1613.17 2001.22 1615.75L1991.25 1637.02H2028.58Z" fill="#727272"/>
<path d="M2072.46 1647.66C2080.75 1653.01 2089.18 1656.54 2097.75 1658.23C2100.64 1658.81 2103.59 1659.1 2106.58 1659.1C2109.56 1659.1 2112.64 1658.83 2115.81 1658.3C2119.02 1657.72 2121.85 1656.78 2124.3 1655.49C2129.83 1652.54 2132.6 1648.02 2132.6 1641.91C2132.6 1635.62 2127.96 1631.23 2118.68 1628.73C2115.96 1628.02 2113.06 1627.37 2109.99 1626.79L2100.42 1625.12C2088.25 1623.02 2079.75 1619.94 2074.93 1615.89C2070.47 1612.18 2068.25 1607.19 2068.25 1600.9C2068.25 1592.34 2072.35 1585.4 2080.55 1580.1C2087.87 1575.33 2096.5 1572.94 2106.44 1572.94C2115.99 1572.94 2124.57 1574.5 2132.2 1577.62C2134.92 1578.69 2137.75 1580.03 2140.69 1581.64L2136.14 1592.54C2129.68 1588.66 2122.05 1586.14 2113.27 1584.98C2110.5 1584.58 2107.82 1584.38 2105.24 1584.38C2099.31 1584.38 2094.07 1585.52 2089.52 1587.79C2084.21 1590.47 2081.56 1594.17 2081.56 1598.89C2081.56 1603.89 2084.92 1607.55 2091.66 1609.87C2094.69 1610.94 2098.12 1611.81 2101.96 1612.47L2113.87 1614.55C2123.9 1616.42 2130.86 1618.54 2134.74 1620.9C2138.62 1623.27 2141.47 1625.92 2143.3 1628.86C2145.17 1631.76 2146.11 1635.64 2146.11 1640.5C2146.11 1645.32 2144.97 1649.65 2142.7 1653.48C2140.42 1657.32 2137.39 1660.48 2133.6 1662.98C2126.2 1667.93 2116.77 1670.4 2105.3 1670.4C2094.6 1670.4 2084.55 1668.09 2075.14 1663.45C2072.06 1661.93 2069.2 1660.19 2066.57 1658.23L2072.46 1647.66Z" fill="#727272"/>
</svg>
