<svg width="903" height="220" viewBox="0 0 903 220" fill="none" xmlns="http://www.w3.org/2000/svg">
<path d="M10.5 1.5H45.5625C57.3958 1.5 66.8542 4.16667 73.9375 9.5C81.6042 15.25 85.4375 23.5208 85.4375 34.3125C85.4375 45.5625 81.3958 54.5208 73.3125 61.1875C65.6458 67.4792 55.8125 70.625 43.8125 70.625H22.0625V90H10.5V1.5ZM45.375 60.125C53.875 60.125 60.5833 58 65.5 53.75C70.625 49.3333 73.1875 43.1042 73.1875 35.0625C73.1875 27.3542 70.3125 21.4792 64.5625 17.4375C59.3958 13.8125 52.4583 12 43.75 12H22.0625V60.125H45.375ZM133.812 1.5H140.375L178.688 90H166.062L157.688 70.625H113.375L104.312 90H92.4375L133.812 1.5ZM153.188 60.125L145.188 41.5625C144.188 39.2292 143.208 36.8125 142.25 34.3125L139.75 27.25C138.167 22.6667 137.229 19.5417 136.938 17.875H136.188C135.854 19.5417 135.104 21.9167 133.938 25C133.938 25 132.875 27.7083 130.75 33.125C129.792 35.4583 128.75 37.8333 127.625 40.25L118.312 60.125H153.188ZM189.812 1.5H201.375V47.3125C201.375 63.3958 206.729 73.7917 217.438 78.5C221.104 80.0833 225.438 80.875 230.438 80.875C235.438 80.875 239.688 80.1458 243.188 78.6875C246.729 77.2292 249.646 75.125 251.938 72.375C256.396 67.0833 258.625 59.3542 258.625 49.1875V1.5H270.188V47.3125C270.188 68.5208 262.542 82.1667 247.25 88.25C242.167 90.25 236.292 91.25 229.625 91.25C222.958 91.25 217.146 90.2917 212.188 88.375C207.271 86.4167 203.167 83.625 199.875 80C193.167 72.6667 189.812 62.3958 189.812 49.1875V1.5ZM291.25 1.5H302.812V79.5H351.062V90H291.25V1.5ZM366.75 1.5H378.312V90H366.75V1.5ZM399.438 1.5H411V47.3125C411 63.3958 416.354 73.7917 427.062 78.5C430.729 80.0833 435.062 80.875 440.062 80.875C445.062 80.875 449.312 80.1458 452.812 78.6875C456.354 77.2292 459.271 75.125 461.562 72.375C466.021 67.0833 468.25 59.3542 468.25 49.1875V1.5H479.812V47.3125C479.812 68.5208 472.167 82.1667 456.875 88.25C451.792 90.25 445.917 91.25 439.25 91.25C432.583 91.25 426.771 90.2917 421.812 88.375C416.896 86.4167 412.792 83.625 409.5 80C402.792 72.6667 399.438 62.3958 399.438 49.1875V1.5ZM503.312 70.0625C511.062 75.0625 518.938 78.3542 526.938 79.9375C529.646 80.4792 532.396 80.75 535.188 80.75C537.979 80.75 540.854 80.5 543.812 80C546.812 79.4583 549.458 78.5833 551.75 77.375C556.917 74.625 559.5 70.3958 559.5 64.6875C559.5 58.8125 555.167 54.7083 546.5 52.375C543.958 51.7083 541.25 51.1042 538.375 50.5625L529.438 49C518.062 47.0417 510.125 44.1667 505.625 40.375C501.458 36.9167 499.375 32.25 499.375 26.375C499.375 18.375 503.208 11.8958 510.875 6.9375C517.708 2.47917 525.771 0.25 535.062 0.25C543.979 0.25 552 1.70833 559.125 4.625C561.667 5.625 564.312 6.875 567.062 8.375L562.812 18.5625C556.771 14.9375 549.646 12.5833 541.438 11.5C538.854 11.125 536.354 10.9375 533.938 10.9375C528.396 10.9375 523.5 12 519.25 14.125C514.292 16.625 511.812 20.0833 511.812 24.5C511.812 29.1667 514.958 32.5833 521.25 34.75C524.083 35.75 527.292 36.5625 530.875 37.1875L542 39.125C551.375 40.875 557.875 42.8542 561.5 45.0625C565.125 47.2708 567.792 49.75 569.5 52.5C571.25 55.2083 572.125 58.8333 572.125 63.375C572.125 67.875 571.062 71.9167 568.938 75.5C566.812 79.0833 563.979 82.0417 560.438 84.375C553.521 89 544.708 91.3125 534 91.3125C524 91.3125 514.604 89.1458 505.812 84.8125C502.938 83.3958 500.271 81.7708 497.812 79.9375L503.312 70.0625ZM41.9375 129.5H48.5L86.8125 218H74.1875L65.8125 198.625H21.5L12.4375 218H0.5625L41.9375 129.5ZM61.3125 188.125L53.3125 169.562C52.3125 167.229 51.3333 164.812 50.375 162.312L47.875 155.25C46.2917 150.667 45.3542 147.542 45.0625 145.875H44.3125C43.9792 147.542 43.2292 149.917 42.0625 153C42.0625 153 41 155.708 38.875 161.125C37.9167 163.458 36.875 165.833 35.75 168.25L26.4375 188.125H61.3125ZM102.312 198.062C110.062 203.062 117.938 206.354 125.938 207.938C128.646 208.479 131.396 208.75 134.188 208.75C136.979 208.75 139.854 208.5 142.812 208C145.812 207.458 148.458 206.583 150.75 205.375C155.917 202.625 158.5 198.396 158.5 192.688C158.5 186.812 154.167 182.708 145.5 180.375C142.958 179.708 140.25 179.104 137.375 178.562L128.438 177C117.062 175.042 109.125 172.167 104.625 168.375C100.458 164.917 98.375 160.25 98.375 154.375C98.375 146.375 102.208 139.896 109.875 134.938C116.708 130.479 124.771 128.25 134.062 128.25C142.979 128.25 151 129.708 158.125 132.625C160.667 133.625 163.312 134.875 166.062 136.375L161.812 146.562C155.771 142.938 148.646 140.583 140.438 139.5C137.854 139.125 135.354 138.938 132.938 138.938C127.396 138.938 122.5 140 118.25 142.125C113.292 144.625 110.812 148.083 110.812 152.5C110.812 157.167 113.958 160.583 120.25 162.75C123.083 163.75 126.292 164.562 129.875 165.188L141 167.125C150.375 168.875 156.875 170.854 160.5 173.062C164.125 175.271 166.792 177.75 168.5 180.5C170.25 183.208 171.125 186.833 171.125 191.375C171.125 195.875 170.062 199.917 167.938 203.5C165.812 207.083 162.979 210.042 159.438 212.375C152.521 217 143.708 219.312 133 219.312C123 219.312 113.604 217.146 104.812 212.812C101.938 211.396 99.2708 209.771 96.8125 207.938L102.312 198.062ZM217.062 140H183.812V129.5H261.875V140H228.625V218H217.062V140ZM355.062 156.75C355.062 169.875 349.021 178.938 336.938 183.938L353.75 218H340.312L325.125 187.188C321 187.812 316.688 188.125 312.188 188.125H289.188V218H277.625V129.5H313.938C327.021 129.5 336.792 131.292 343.25 134.875C351.125 139.208 355.062 146.5 355.062 156.75ZM313.75 177.625C323.083 177.625 330 176.333 334.5 173.75C340.042 170.542 342.812 165.125 342.812 157.5C342.812 147.583 336.396 141.958 323.562 140.625C319.854 140.208 316.042 140 312.125 140H289.188V177.625H313.75ZM405.938 129.5H412.5L450.812 218H438.188L429.812 198.625H385.5L376.438 218H364.562L405.938 129.5ZM425.312 188.125L417.312 169.562C416.312 167.229 415.333 164.812 414.375 162.312L411.875 155.25C410.292 150.667 409.354 147.542 409.062 145.875H408.312C407.979 147.542 407.229 149.917 406.062 153C406.062 153 405 155.708 402.875 161.125C401.917 163.458 400.875 165.833 399.75 168.25L390.438 188.125H425.312ZM461.938 129.5H473.5V175.312C473.5 191.396 478.854 201.792 489.562 206.5C493.229 208.083 497.562 208.875 502.562 208.875C507.562 208.875 511.812 208.146 515.312 206.688C518.854 205.229 521.771 203.125 524.062 200.375C528.521 195.083 530.75 187.354 530.75 177.188V129.5H542.312V175.312C542.312 196.521 534.667 210.167 519.375 216.25C514.292 218.25 508.417 219.25 501.75 219.25C495.083 219.25 489.271 218.292 484.312 216.375C479.396 214.417 475.292 211.625 472 208C465.292 200.667 461.938 190.396 461.938 177.188V129.5ZM565.812 198.062C573.562 203.062 581.438 206.354 589.438 207.938C592.146 208.479 594.896 208.75 597.688 208.75C600.479 208.75 603.354 208.5 606.312 208C609.312 207.458 611.958 206.583 614.25 205.375C619.417 202.625 622 198.396 622 192.688C622 186.812 617.667 182.708 609 180.375C606.458 179.708 603.75 179.104 600.875 178.562L591.938 177C580.562 175.042 572.625 172.167 568.125 168.375C563.958 164.917 561.875 160.25 561.875 154.375C561.875 146.375 565.708 139.896 573.375 134.938C580.208 130.479 588.271 128.25 597.562 128.25C606.479 128.25 614.5 129.708 621.625 132.625C624.167 133.625 626.812 134.875 629.562 136.375L625.312 146.562C619.271 142.938 612.146 140.583 603.938 139.5C601.354 139.125 598.854 138.938 596.438 138.938C590.896 138.938 586 140 581.75 142.125C576.792 144.625 574.312 148.083 574.312 152.5C574.312 157.167 577.458 160.583 583.75 162.75C586.583 163.75 589.792 164.562 593.375 165.188L604.5 167.125C613.875 168.875 620.375 170.854 624 173.062C627.625 175.271 630.292 177.75 632 180.5C633.75 183.208 634.625 186.833 634.625 191.375C634.625 195.875 633.562 199.917 631.438 203.5C629.312 207.083 626.479 210.042 622.938 212.375C616.021 217 607.208 219.312 596.5 219.312C586.5 219.312 577.104 217.146 568.312 212.812C565.438 211.396 562.771 209.771 560.312 207.938L565.812 198.062ZM654.625 129.5H666.5V173.562L712.438 129.5H727.375L679.25 175.375L729.438 218H711.188L666.5 178.938V218H654.625V129.5ZM773.812 129.5H780.375L818.688 218H806.062L797.688 198.625H753.375L744.312 218H732.438L773.812 129.5ZM793.188 188.125L785.188 169.562C784.188 167.229 783.208 164.812 782.25 162.312L779.75 155.25C778.167 150.667 777.229 147.542 776.938 145.875H776.188C775.854 147.542 775.104 149.917 773.938 153C773.938 153 772.875 155.708 770.75 161.125C769.792 163.458 768.75 165.833 767.625 168.25L758.312 188.125H793.188ZM834.188 198.062C841.938 203.062 849.812 206.354 857.812 207.938C860.521 208.479 863.271 208.75 866.062 208.75C868.854 208.75 871.729 208.5 874.688 208C877.688 207.458 880.333 206.583 882.625 205.375C887.792 202.625 890.375 198.396 890.375 192.688C890.375 186.812 886.042 182.708 877.375 180.375C874.833 179.708 872.125 179.104 869.25 178.562L860.312 177C848.938 175.042 841 172.167 836.5 168.375C832.333 164.917 830.25 160.25 830.25 154.375C830.25 146.375 834.083 139.896 841.75 134.938C848.583 130.479 856.646 128.25 865.938 128.25C874.854 128.25 882.875 129.708 890 132.625C892.542 133.625 895.188 134.875 897.938 136.375L893.688 146.562C887.646 142.938 880.521 140.583 872.312 139.5C869.729 139.125 867.229 138.938 864.812 138.938C859.271 138.938 854.375 140 850.125 142.125C845.167 144.625 842.688 148.083 842.688 152.5C842.688 157.167 845.833 160.583 852.125 162.75C854.958 163.75 858.167 164.562 861.75 165.188L872.875 167.125C882.25 168.875 888.75 170.854 892.375 173.062C896 175.271 898.667 177.75 900.375 180.5C902.125 183.208 903 186.833 903 191.375C903 195.875 901.938 199.917 899.812 203.5C897.688 207.083 894.854 210.042 891.312 212.375C884.396 217 875.583 219.312 864.875 219.312C854.875 219.312 845.479 217.146 836.688 212.812C833.812 211.396 831.146 209.771 828.688 207.938L834.188 198.062Z" fill="#F1F0E6"/>
</svg>
