<svg width="3990" height="3986" viewBox="0 0 3990 3986" fill="none" xmlns="http://www.w3.org/2000/svg">
<path d="M1935.76 656.5C1925.76 656.5 1914.09 655.833 1900.76 654.5C1887.42 653.5 1874.09 652.167 1860.76 650.5C1847.76 648.5 1836.26 646.833 1826.26 645.5L1830.26 612.5C1839.92 613.5 1851.09 614.667 1863.76 616C1876.76 617.333 1889.42 618.5 1901.76 619.5C1914.42 620.5 1925.09 621 1933.76 621C1958.09 621 1976.26 615.5 1988.26 604.5C2000.26 593.5 2006.26 576.333 2006.26 553C2006.26 540.333 2003.76 530.333 1998.76 523C1994.09 515.333 1986.09 509.333 1974.76 505C1963.76 500.333 1948.92 496.167 1930.26 492.5C1906.26 487.5 1886.26 481.667 1870.26 475C1854.59 468 1842.76 458.167 1834.76 445.5C1827.09 432.833 1823.26 415.667 1823.26 394C1823.26 371.667 1827.76 353.667 1836.76 340C1846.09 326.333 1859.09 316.333 1875.76 310C1892.76 303.667 1912.42 300.5 1934.76 300.5C1944.76 300.5 1956.09 301.167 1968.76 302.5C1981.76 303.5 1994.42 304.833 2006.76 306.5C2019.42 307.833 2030.26 309.333 2039.26 311L2035.76 344.5C2026.09 343.167 2014.92 342 2002.26 341C1989.59 339.667 1977.42 338.5 1965.76 337.5C1954.09 336.5 1944.76 336 1937.76 336C1913.42 336 1894.92 340.5 1882.26 349.5C1869.92 358.5 1863.76 372.5 1863.76 391.5C1863.76 406.167 1866.42 417.333 1871.76 425C1877.42 432.667 1886.42 438.667 1898.76 443C1911.09 447.333 1927.26 451.833 1947.26 456.5C1964.59 460.5 1979.42 464.833 1991.76 469.5C2004.42 474.167 2014.76 480 2022.76 487C2031.09 493.667 2037.09 502.167 2040.76 512.5C2044.76 522.5 2046.76 535 2046.76 550C2046.76 575.333 2042.26 595.833 2033.26 611.5C2024.26 627.167 2011.42 638.667 1994.76 646C1978.09 653 1958.42 656.5 1935.76 656.5Z" fill="#FFFEF2"/>
<path d="M2390.25 717.955C2365.66 709.513 2346.73 698.96 2333.45 686.297C2320.49 673.742 2312.04 658.856 2308.08 641.638C2304.12 624.421 2303.98 604.812 2307.66 582.814C2311.65 560.924 2318.3 536.422 2327.6 509.308C2337.13 481.564 2347.09 457.672 2357.5 437.631C2368.22 417.698 2380.43 402.153 2394.12 390.997C2407.82 379.84 2423.64 373.288 2441.58 371.34C2459.83 369.5 2481.25 372.802 2505.84 381.244C2517.19 385.14 2528.17 389.613 2538.77 394.662C2549.8 399.504 2559.87 404.549 2569 409.796C2578.23 414.727 2586.04 419.172 2592.44 423.129L2580.14 454.327C2573.64 450.685 2565.56 446.502 2555.9 441.777C2546.25 437.053 2536.38 432.432 2526.3 427.914C2516.22 423.397 2506.92 419.677 2498.41 416.754C2480.44 410.585 2464.86 408.232 2451.67 409.695C2438.8 411.267 2427.42 416.699 2417.53 425.993C2407.75 434.971 2398.84 447.593 2390.78 463.86C2382.84 479.812 2374.87 499.453 2366.86 522.783C2359.06 545.483 2353.35 565.724 2349.71 583.506C2346.18 600.973 2345.36 616.198 2347.25 629.181C2349.56 641.957 2355.47 652.972 2364.98 662.228C2374.49 671.484 2388.38 679.251 2406.67 685.529C2419.91 690.075 2434.68 694.265 2450.99 698.1C2467.72 701.729 2481.92 704.491 2493.61 706.388L2483.99 739.032C2475.88 738.011 2466.51 736.557 2455.88 734.67C2445.25 732.783 2434.26 730.418 2422.9 727.576C2411.54 724.733 2400.66 721.526 2390.25 717.955Z" fill="#FFFEF2"/>
<path d="M2695 842.884L2907.21 570.236L3008.61 649.162C3027.81 664.108 3041.61 679.49 3049.99 695.309C3058.64 711.333 3061.44 728.086 3058.39 745.568C3055.55 762.786 3046.66 780.997 3031.71 800.199C3016.15 820.191 2998.97 833.852 2980.17 841.184C2961.63 848.72 2941.67 848.597 2920.27 840.813L2886.36 991.83L2851.25 964.498L2883.88 823.259L2807.33 763.68L2726.56 867.452L2695 842.884ZM2828.83 736.06L2899.06 790.725C2912.48 801.167 2925.07 806.96 2936.86 808.104C2948.9 809.453 2960.01 807.118 2970.19 801.099C2980.57 794.817 2990.06 786.152 2998.66 775.104C3013.19 756.428 3019.57 739.006 3017.79 722.838C3016.02 706.67 3005.79 691.318 2987.11 676.782L2917.27 622.424L2828.83 736.06Z" fill="#FFFEF2"/>
<path d="M3092.64 1239.67C3072.95 1209.53 3063.22 1182.44 3063.44 1158.41C3063.85 1134.65 3072.75 1112.31 3090.14 1091.39C3107.99 1070.57 3132.96 1049.68 3165.05 1028.71C3197.14 1007.75 3226.54 993.318 3253.24 985.43C3279.94 977.542 3304.53 978.002 3327.01 986.809C3349.94 995.712 3371.17 1015.09 3390.67 1044.95C3410.18 1074.81 3419.45 1101.8 3418.49 1125.92C3417.71 1150.32 3408.2 1173.26 3389.98 1194.72C3372.03 1216 3347.01 1237.13 3314.92 1258.1C3281.99 1279.61 3252.31 1294.22 3225.89 1301.92C3199.93 1309.73 3176.04 1308.81 3154.22 1299.18C3132.86 1289.64 3112.33 1269.8 3092.64 1239.67ZM3122.36 1220.25C3136.77 1242.29 3151.89 1256.3 3167.74 1262.28C3183.58 1268.25 3201.53 1267.67 3221.56 1260.56C3241.88 1253.26 3265.43 1240.86 3292.22 1223.35C3318.17 1206.4 3338.62 1189.85 3353.56 1173.72C3368.96 1157.68 3377.53 1140.94 3379.27 1123.48C3381.28 1105.84 3375.18 1086.14 3360.96 1064.37C3346.73 1042.6 3331.14 1029.1 3314.18 1023.86C3297.5 1018.43 3278.77 1019.32 3257.99 1026.52C3237.4 1034.01 3213.98 1046.32 3187.75 1063.45C3161.8 1080.41 3141.4 1096.72 3126.55 1112.39C3111.99 1127.88 3103.98 1144.27 3102.52 1161.54C3101.35 1178.63 3107.96 1198.2 3122.36 1220.25Z" fill="#FFFEF2"/>
<path d="M3251.47 1517.9L3586.4 1433.08L3596.22 1471.86L3296.19 1547.83L3333.26 1694.21L3298.36 1703.05L3251.47 1517.9Z" fill="#FFFEF2"/>
<path d="M3336.7 1953.09L3681.02 1981.62L3677.72 2021.48L3369.28 1995.92L3356.81 2146.41L3320.93 2143.43L3336.7 1953.09Z" fill="#FFFEF2"/>
<path d="M3028.56 2839.65L3256.27 3049.27L3327.72 2971.65L3354.21 2996.03L3184.89 3179.96L3158.4 3155.58L3229.18 3078.7L3001.47 2869.08L3028.56 2839.65Z" fill="#FFFEF2"/>
<path d="M2647.71 3151.67C2679.37 3134.54 2707.17 3127.07 2731.1 3129.28C2754.74 3131.65 2776.27 3142.36 2795.68 3161.42C2814.96 3180.93 2833.72 3207.54 2851.96 3241.25C2870.21 3274.97 2882.16 3305.45 2887.81 3332.71C2893.47 3359.97 2890.98 3384.44 2880.35 3406.11C2869.58 3428.24 2848.51 3447.79 2817.14 3464.76C2785.78 3481.74 2758.11 3488.75 2734.15 3485.8C2709.9 3483.01 2687.83 3471.64 2667.94 3451.7C2648.22 3432.06 2629.23 3405.38 2610.99 3371.66C2592.27 3337.07 2580.16 3306.29 2574.66 3279.32C2569.03 3252.81 2571.91 3229.08 2583.31 3208.12C2594.58 3187.62 2616.05 3168.81 2647.71 3151.67ZM2664.6 3182.89C2641.44 3195.43 2626.23 3209.34 2618.97 3224.64C2611.71 3239.94 2610.8 3257.87 2616.24 3278.42C2621.84 3299.27 2632.25 3323.77 2647.48 3351.91C2662.24 3379.18 2677.04 3400.92 2691.88 3417.14C2706.59 3433.82 2722.57 3443.74 2739.83 3446.91C2757.24 3450.37 2777.38 3445.92 2800.25 3433.54C2823.11 3421.17 2837.86 3406.75 2844.49 3390.27C2851.27 3374.09 2851.93 3355.35 2846.47 3334.05C2840.71 3312.91 2830.38 3288.56 2815.46 3261.01C2800.71 3233.74 2786.14 3212.07 2771.74 3195.98C2757.51 3180.18 2741.85 3170.84 2724.75 3167.97C2707.81 3165.38 2687.76 3170.36 2664.6 3182.89Z" fill="#FFFEF2"/>
<path d="M1847.52 3324.46L1796.58 3629.74L1900.64 3647.11L1894.72 3682.62L1648.13 3641.47L1654.05 3605.96L1757.13 3623.16L1808.07 3317.88L1847.52 3324.46Z" fill="#FFFEF2"/>
<path d="M1483.8 3239.22L1319.36 3543.08L1284.18 3524.04L1357.47 3388.61L1204.88 3306.03L1131.59 3441.47L1096.41 3422.43L1260.85 3118.57L1296.03 3137.61L1221.78 3274.81L1374.37 3357.38L1448.62 3220.19L1483.8 3239.22Z" fill="#FFFEF2"/>
<path d="M1105.89 3007.18L851.698 3241.19L708.453 3085.58L734.571 3061.54L850.725 3187.71L936.805 3108.47L840.97 3004.37L866.72 2980.66L962.555 3084.77L1052.68 3001.8L936.528 2875.62L962.646 2851.58L1105.89 3007.18Z" fill="#FFFEF2"/>
<path d="M662.325 2180.02L353.882 2205.58L362.594 2310.72L326.717 2313.7L306.072 2064.55L341.949 2061.58L350.579 2165.72L659.022 2140.16L662.325 2180.02Z" fill="#FFFEF2"/>
<path d="M690.709 1688.49C681.871 1723.39 668.535 1748.9 650.7 1765.01C632.947 1780.8 610.486 1789.39 583.318 1790.76C555.908 1791.73 523.623 1787.51 486.463 1778.09C449.302 1768.68 418.779 1756.83 394.892 1742.53C371.005 1728.23 354.69 1709.82 345.946 1687.32C336.961 1664.42 336.847 1635.68 345.602 1601.1C354.358 1566.52 367.935 1541.42 386.335 1525.79C404.816 1509.84 428.126 1501.3 456.263 1500.18C484.078 1498.97 516.565 1503.07 553.726 1512.48C591.856 1522.14 622.702 1534.07 646.266 1548.29C669.588 1562.11 685.096 1580.3 692.788 1602.88C700.239 1625.06 699.546 1653.59 690.709 1688.49ZM656.295 1679.78C662.759 1654.25 662.822 1633.63 656.483 1617.93C650.144 1602.23 637.571 1589.42 618.764 1579.5C599.634 1569.49 574.559 1560.56 543.538 1552.71C513.487 1545.1 487.466 1541.26 465.476 1541.19C443.245 1540.72 425.12 1545.76 411.102 1556.31C396.761 1566.77 386.399 1584.61 380.016 1609.81C373.633 1635.02 374.258 1655.64 381.889 1671.67C389.198 1687.62 402.538 1700.79 421.909 1711.2C441.362 1721.29 466.276 1730.17 496.65 1737.86C526.702 1745.47 552.52 1749.43 574.105 1749.74C595.366 1749.97 612.845 1744.77 626.54 1734.14C639.912 1723.43 649.831 1705.31 656.295 1679.78Z" fill="#FFFEF2"/>
<path d="M787.836 1383.2L498.595 1194.23L567.784 1088.33C581.64 1067.12 596.523 1051.95 612.433 1042.84C628.064 1033.54 645.043 1030.1 663.372 1032.52C681.421 1034.76 701.05 1042.8 722.258 1056.66C743.187 1070.33 758.859 1085.35 769.273 1101.71C779.409 1117.89 783.916 1135.36 782.796 1154.14C781.397 1172.74 773.77 1192.64 759.914 1213.85L712.603 1286.26L809.714 1349.71L787.836 1383.2ZM683.302 1267.12L730.613 1194.71C744.104 1174.06 747.859 1155.21 741.876 1138.16C735.893 1121.11 721.878 1105.38 699.833 1090.98C677.509 1076.4 658.176 1070.34 641.834 1072.8C625.493 1075.26 610.576 1086.82 597.085 1107.47L549.774 1179.88L683.302 1267.12Z" fill="#FFFEF2"/>
</svg>
